<svg version="1.1" id="图层_1" xmlns="http://www.w3.org/2000/svg" xmlns:xlink="http://www.w3.org/1999/xlink" x="0px" y="0px"
	 viewBox="0 0 200 200" style="enable-background:new 0 0 200 200;" xml:space="preserve">
<g>
	<path class="st0" d="M100.4,63.3c-25.9,0-47.1,21-47.1,47.1c0,25.9,21,47.1,47.1,47.1c25.9,0,47.1-21.2,47.1-47.1
		S126.5,63.3,100.4,63.3z M100.4,146.8c-20.1,0-36.3-16.4-36.3-36.3c0-20.1,16.4-36.3,36.3-36.3s36.3,16.2,36.3,36.3
		S120.3,146.8,100.4,146.8z"/>
	<path class="st0" d="M166.5,61.4c-3.9,0-7.3,3.2-7.3,7.3c0,3.9,3.2,7.3,7.3,7.3c4.1,0,7.3-3.2,7.3-7.3
		C173.8,64.8,170.6,61.4,166.5,61.4z"/>
	<path class="st0" d="M178.8,38.9h-31.3l-13.4-17.3c-1.1-1.3-2.6-2-4.3-2H70.2c-1.7,0-3.4,0.9-4.3,2.2L53.2,38.9h-32
		C12.3,38.9,5,46.2,5,55.1v109.2c0,8.9,7.3,16.2,16.2,16.2h157.6c8.9,0,16.2-7.3,16.2-16.2V55.1C195,46.2,187.7,38.9,178.8,38.9z
		 M184.2,164.3c0,3-2.4,5.4-5.4,5.4H21.2c-3,0-5.4-2.4-5.4-5.4V55.1c0-3,2.4-5.4,5.4-5.4h35c1.7,0,3.4-0.9,4.3-2.2l12.7-17.1h54
		l13.4,17.3c1.1,1.3,2.6,2,4.3,2h33.9c3,0,5.4,2.4,5.4,5.4V164.3z"/>
</g>
</svg>
